<svg width="150" height="49" viewBox="0 0 150 49" fill="none" xmlns="http://www.w3.org/2000/svg">
<path d="M77.08 35.5C78.4533 35.8467 79.14 36.7067 79.14 38.08C79.14 39.0133 78.7867 39.7333 78.08 40.24C77.3867 40.7467 76.3467 41 74.96 41H69.86V30.4H74.78C76.0333 30.4 77.0133 30.64 77.72 31.12C78.4267 31.5867 78.78 32.2533 78.78 33.12C78.78 33.68 78.6267 34.1667 78.32 34.58C78.0267 34.98 77.6133 35.2867 77.08 35.5ZM71.74 34.96H74.62C75.3533 34.96 75.9067 34.8267 76.28 34.56C76.6667 34.2933 76.86 33.9067 76.86 33.4C76.86 32.3867 76.1133 31.88 74.62 31.88H71.74V34.96ZM74.82 39.52C75.62 39.52 76.22 39.3933 76.62 39.14C77.02 38.8867 77.22 38.4933 77.22 37.96C77.22 37.4133 77.0333 37.0067 76.66 36.74C76.3 36.4733 75.7267 36.34 74.94 36.34H71.74V39.52H74.82ZM86.6852 41.12C85.6318 41.12 84.6852 40.8867 83.8452 40.42C83.0052 39.9533 82.3452 39.3133 81.8652 38.5C81.3985 37.6733 81.1652 36.74 81.1652 35.7C81.1652 34.66 81.3985 33.7333 81.8652 32.92C82.3452 32.0933 83.0052 31.4533 83.8452 31C84.6852 30.5333 85.6318 30.3 86.6852 30.3C87.7385 30.3 88.6785 30.5333 89.5052 31C90.3452 31.4533 90.9985 32.0933 91.4652 32.92C91.9452 33.7333 92.1852 34.66 92.1852 35.7C92.1852 36.74 91.9452 37.6733 91.4652 38.5C90.9985 39.3133 90.3452 39.9533 89.5052 40.42C88.6785 40.8867 87.7385 41.12 86.6852 41.12ZM86.6852 39.44C87.3652 39.44 87.9718 39.2867 88.5052 38.98C89.0518 38.66 89.4785 38.22 89.7852 37.66C90.0918 37.0867 90.2452 36.4333 90.2452 35.7C90.2452 34.9667 90.0918 34.32 89.7852 33.76C89.4785 33.1867 89.0518 32.7467 88.5052 32.44C87.9718 32.1333 87.3652 31.98 86.6852 31.98C86.0052 31.98 85.3918 32.1333 84.8452 32.44C84.3118 32.7467 83.8852 33.1867 83.5652 33.76C83.2585 34.32 83.1052 34.9667 83.1052 35.7C83.1052 36.4333 83.2585 37.0867 83.5652 37.66C83.8852 38.22 84.3118 38.66 84.8452 38.98C85.3918 39.2867 86.0052 39.44 86.6852 39.44ZM103.98 30.4V41H102.06V32.08H97.4995L97.3795 34.44C97.3129 35.8667 97.1862 37.06 96.9995 38.02C96.8129 38.9667 96.5062 39.7267 96.0795 40.3C95.6529 40.8733 95.0595 41.16 94.2995 41.16C93.9529 41.16 93.5595 41.1 93.1195 40.98L93.2395 39.36C93.4129 39.4 93.5729 39.42 93.7195 39.42C94.2529 39.42 94.6529 39.1867 94.9195 38.72C95.1862 38.2533 95.3595 37.7 95.4395 37.06C95.5195 36.42 95.5929 35.5067 95.6595 34.32L95.8395 30.4H103.98ZM107.692 30.4H109.612V34.9H115.652V30.4H117.572V41H115.652V36.56H109.612V41H107.692V30.4ZM125.085 30.3C126.552 30.3 127.672 30.66 128.445 31.38C129.232 32.1 129.625 33.1733 129.625 34.6V41H127.805V39.6C127.485 40.0933 127.025 40.4733 126.425 40.74C125.839 40.9933 125.139 41.12 124.325 41.12C123.139 41.12 122.185 40.8333 121.465 40.26C120.759 39.6867 120.405 38.9333 120.405 38C120.405 37.0667 120.745 36.32 121.425 35.76C122.105 35.1867 123.185 34.9 124.665 34.9H127.705V34.52C127.705 33.6933 127.465 33.06 126.985 32.62C126.505 32.18 125.799 31.96 124.865 31.96C124.239 31.96 123.625 32.0667 123.025 32.28C122.425 32.48 121.919 32.7533 121.505 33.1L120.705 31.66C121.252 31.22 121.905 30.8867 122.665 30.66C123.425 30.42 124.232 30.3 125.085 30.3ZM124.645 39.64C125.379 39.64 126.012 39.48 126.545 39.16C127.079 38.8267 127.465 38.36 127.705 37.76V36.28H124.745C123.119 36.28 122.305 36.8267 122.305 37.92C122.305 38.4533 122.512 38.8733 122.925 39.18C123.339 39.4867 123.912 39.64 124.645 39.64Z" fill="white"/>
<path d="M82.64 20.32V24.46H80.84V22H71.98V24.46H70.16V20.32H70.72C71.4 20.28 71.8667 19.8 72.12 18.88C72.3733 17.96 72.5467 16.66 72.64 14.98L72.8 11.4H81.02V20.32H82.64ZM74.4 15.12C74.3467 16.4533 74.2333 17.56 74.06 18.44C73.9 19.3067 73.6 19.9333 73.16 20.32H79.1V13.08H74.5L74.4 15.12ZM90.7613 11.3C91.7879 11.3 92.7079 11.5267 93.5213 11.98C94.3346 12.4333 94.9679 13.0667 95.4213 13.88C95.8879 14.6933 96.1213 15.6333 96.1213 16.7C96.1213 17.7667 95.8879 18.7133 95.4213 19.54C94.9679 20.3533 94.3346 20.9867 93.5213 21.44C92.7079 21.8933 91.7879 22.12 90.7613 22.12C90.0013 22.12 89.3013 21.9733 88.6613 21.68C88.0346 21.3867 87.5013 20.96 87.0613 20.4V25.88H85.1413V11.4H86.9813V13.08C87.4079 12.4933 87.9479 12.0533 88.6013 11.76C89.2546 11.4533 89.9746 11.3 90.7613 11.3ZM90.6013 20.44C91.2813 20.44 91.8879 20.2867 92.4213 19.98C92.9679 19.66 93.3946 19.22 93.7013 18.66C94.0213 18.0867 94.1813 17.4333 94.1813 16.7C94.1813 15.9667 94.0213 15.32 93.7013 14.76C93.3946 14.1867 92.9679 13.7467 92.4213 13.44C91.8879 13.1333 91.2813 12.98 90.6013 12.98C89.9346 12.98 89.3279 13.14 88.7813 13.46C88.2479 13.7667 87.8213 14.2 87.5013 14.76C87.1946 15.32 87.0413 15.9667 87.0413 16.7C87.0413 17.4333 87.1946 18.0867 87.5013 18.66C87.8079 19.22 88.2346 19.66 88.7813 19.98C89.3279 20.2867 89.9346 20.44 90.6013 20.44ZM108.078 11.4L102.938 23.06C102.484 24.14 101.951 24.9 101.338 25.34C100.738 25.78 100.011 26 99.1578 26C98.6378 26 98.1311 25.9133 97.6378 25.74C97.1578 25.58 96.7578 25.34 96.4378 25.02L97.2578 23.58C97.8045 24.1 98.4378 24.36 99.1578 24.36C99.6245 24.36 100.011 24.2333 100.318 23.98C100.638 23.74 100.924 23.32 101.178 22.72L101.518 21.98L96.8378 11.4H98.8378L102.538 19.88L106.198 11.4H108.078ZM117.844 13.08H111.964V22H110.044V11.4H117.844V13.08ZM123.589 11.3C125.056 11.3 126.176 11.66 126.949 12.38C127.736 13.1 128.129 14.1733 128.129 15.6V22H126.309V20.6C125.989 21.0933 125.529 21.4733 124.929 21.74C124.343 21.9933 123.643 22.12 122.829 22.12C121.643 22.12 120.689 21.8333 119.969 21.26C119.263 20.6867 118.909 19.9333 118.909 19C118.909 18.0667 119.249 17.32 119.929 16.76C120.609 16.1867 121.689 15.9 123.169 15.9H126.209V15.52C126.209 14.6933 125.969 14.06 125.489 13.62C125.009 13.18 124.303 12.96 123.369 12.96C122.743 12.96 122.129 13.0667 121.529 13.28C120.929 13.48 120.423 13.7533 120.009 14.1L119.209 12.66C119.756 12.22 120.409 11.8867 121.169 11.66C121.929 11.42 122.736 11.3 123.589 11.3ZM123.149 20.64C123.883 20.64 124.516 20.48 125.049 20.16C125.583 19.8267 125.969 19.36 126.209 18.76V17.28H123.249C121.623 17.28 120.809 17.8267 120.809 18.92C120.809 19.4533 121.016 19.8733 121.429 20.18C121.843 20.4867 122.416 20.64 123.149 20.64ZM140.087 11.4V22H138.367V18.64H135.287H135.067L132.747 22H130.687L133.267 18.38C132.467 18.14 131.853 17.7467 131.427 17.2C131 16.64 130.787 15.9467 130.787 15.12C130.787 13.9067 131.2 12.9867 132.027 12.36C132.853 11.72 133.993 11.4 135.447 11.4H140.087ZM132.747 15.18C132.747 15.8867 132.967 16.4133 133.407 16.76C133.86 17.0933 134.533 17.26 135.427 17.26H138.367V13.08H135.507C133.667 13.08 132.747 13.78 132.747 15.18Z" fill="white"/>
<line x1="65.5" y1="42" x2="65.5" y2="1" stroke="white"/>
<line x1="16" y1="0.5" x2="66" y2="0.5" stroke="white"/>
<line x1="16.5" y1="21" x2="16.5" y2="1" stroke="white"/>
<path d="M1 44.5C4.55556 39.8333 8.11111 39.8333 11.6667 44.5C15.2222 49.1667 18.7778 49.1667 22.3333 44.5C25.8889 39.8333 29.4444 39.8333 33 44.5C36.5556 49.1667 40.1111 49.1667 43.6667 44.5C47.2222 39.8333 50.7778 39.8333 54.3333 44.5C57.8889 49.1667 61.4444 49.1667 65 44.5" stroke="#FFE456" stroke-width="2"/>
<path d="M1 35.5C4.58333 30.8333 8.16667 30.8333 11.75 35.5C15.3333 40.1667 18.9167 40.1667 22.5 35.5C26.0833 30.8333 29.6667 30.8333 33.25 35.5C36.8333 40.1667 40.4167 40.1667 44 35.5" stroke="#FFE456" stroke-width="2"/>
<path d="M1 26.5C4.66667 21.8333 8.33333 21.8333 12 26.5C15.6667 31.1667 19.3333 31.1667 23 26.5" stroke="#FFE456" stroke-width="2"/>
</svg>
